<svg width="200" height="200" viewBox="0 0 200 200" fill="none" xmlns="http://www.w3.org/2000/svg">
<rect width="200" height="200" fill="black"/>
<path d="M104.029 122.65C104.029 117.37 104.054 114.209 104.09 114.143C104.138 114.052 105.773 112.938 107.662 111.709C107.947 111.527 109.243 110.667 110.544 109.807C111.852 108.942 113.033 108.167 113.178 108.076C113.324 107.985 113.893 107.609 114.444 107.246C114.995 106.877 115.582 106.495 115.746 106.392C115.915 106.289 116.176 106.12 116.333 106.011C117.144 105.454 117.95 104.976 117.992 105.018C118.004 105.03 118.035 108.839 118.053 113.483L118.095 121.924L117.708 122.16C117.496 122.287 117.223 122.456 117.108 122.529C116.993 122.602 116.678 122.802 116.412 122.971C116.145 123.141 115.413 123.619 114.777 124.037C114.147 124.448 113.312 124.993 112.93 125.242C112.549 125.49 111.719 126.035 111.083 126.447C110.454 126.858 109.679 127.361 109.37 127.561C108.28 128.251 107.499 128.766 105.816 129.88C104.883 130.497 104.102 131.018 104.078 131.024C104.047 131.036 104.029 127.27 104.029 122.65Z" fill="white"/>
<path d="M96.5823 130.134C95.8678 129.668 95.0928 129.165 94.8566 129.02C94.2451 128.626 92.586 127.549 91.4658 126.81C90.5213 126.192 89.9581 125.817 88.1659 124.618C87.2516 124.006 86.1314 123.286 85.7136 123.044C85.5804 122.965 85.1686 122.699 84.7932 122.456C84.4239 122.214 84.0848 122.014 84.0485 122.014C83.9213 122.014 83.8789 121.718 83.8971 120.918C83.9092 120.47 83.9152 116.71 83.9213 112.556C83.9274 107.519 83.9455 105 83.9879 105C84.0485 105 84.4178 105.236 86.2585 106.453C86.7914 106.804 87.2697 107.119 87.3303 107.149C87.3848 107.186 87.7844 107.446 88.2082 107.731C88.6321 108.021 89.4314 108.548 89.9824 108.905C90.5334 109.262 91.2418 109.729 91.5567 109.935C91.8715 110.14 92.2409 110.371 92.3741 110.449C92.6223 110.595 94.7053 111.963 96.4431 113.12C96.982 113.477 97.5027 113.816 97.5996 113.864C98.0113 114.076 97.975 113.277 97.975 122.565C97.975 127.191 97.9568 130.976 97.9326 130.976C97.9023 130.976 97.2968 130.594 96.5823 130.134Z" fill="white"/>
<path d="M123.974 117.734C123.95 117.473 123.95 112.078 123.968 105.739C123.992 98.6178 123.986 94.1614 123.95 94.0705C123.914 93.9797 123.847 93.9192 123.768 93.9192C123.671 93.9192 122.533 94.6397 120.474 96.0142C120.281 96.1413 120.032 96.3048 119.929 96.3654C119.827 96.432 119.633 96.5712 119.5 96.6742C119.366 96.7832 118.985 97.0254 118.652 97.2191C118.319 97.4129 117.75 97.7641 117.38 98.0063C117.017 98.2424 116.508 98.5694 116.254 98.7329C116 98.9024 115.6 99.1628 115.376 99.3142C114.516 99.8833 113.505 100.549 113.445 100.58C113.414 100.598 113.227 100.719 113.027 100.852C112.573 101.161 111.907 101.597 111.446 101.888C110.823 102.281 109.594 103.086 107.178 104.685C105.894 105.533 104.707 106.32 104.538 106.435C103.962 106.81 104.023 107.549 104.035 99.7683L104.047 92.8959L104.205 92.7505C104.386 92.587 107.807 90.3164 109.872 88.9904C110.241 88.7542 110.605 88.512 110.69 88.4515C111.132 88.1427 113.511 86.6108 114.656 85.8963C115.255 85.5208 116.03 85.0183 116.351 84.8003C116.454 84.7276 116.805 84.4976 117.138 84.2796C118.809 83.1957 119.161 82.9717 119.421 82.8021C119.578 82.7053 119.893 82.4994 120.117 82.342C120.904 81.797 121.074 81.682 121.589 81.355C121.873 81.1733 122.576 80.7132 123.151 80.3438C123.726 79.9684 124.453 79.4961 124.755 79.3023C125.064 79.1086 125.53 78.8058 125.797 78.6302C126.063 78.4546 126.572 78.1277 126.929 77.8976C128.419 76.9409 129.048 76.5292 130.193 75.7844C130.853 75.3545 131.688 74.8095 132.046 74.5794C132.706 74.1556 134.51 72.9809 134.788 72.7872C134.873 72.7327 135.164 72.5328 135.436 72.3451C135.715 72.1514 135.951 72 135.969 72C135.987 72 135.999 80.6345 135.999 91.1944V110.383L135.745 110.558C135.6 110.655 135.061 110.988 134.546 111.297C133.82 111.733 129.914 114.294 128.927 114.985C128.788 115.081 128.061 115.56 126.402 116.638C126.172 116.789 125.555 117.207 125.04 117.558C124.525 117.909 124.083 118.2 124.065 118.2C124.041 118.2 123.998 117.988 123.974 117.734Z" fill="white"/>
<path d="M77.4442 117.671C77.099 117.447 76.5844 117.108 76.2998 116.927C75.6156 116.478 74.5135 115.776 73.4963 115.14C73.2359 114.977 72.5275 114.517 71.9159 114.117C71.2983 113.717 70.4567 113.172 70.0328 112.906C69.609 112.64 68.9429 112.216 68.5554 111.967C68.1679 111.719 67.7925 111.483 67.7319 111.441C67.5866 111.356 66.9084 110.944 66.4119 110.641C66.2182 110.526 66.0426 110.405 66.0244 110.375C65.9881 110.314 65.9941 72.0528 66.0305 72.0165C66.0607 71.9862 66.5754 72.3132 69.6211 74.3053C71.4376 75.486 72.909 76.4548 73.7688 77.0361C74.0473 77.2238 74.6407 77.6174 75.0888 77.908C75.5368 78.1987 76.1787 78.6165 76.5117 78.8405C76.8447 79.0585 77.1596 79.2704 77.2141 79.3007C77.2625 79.337 77.4018 79.4218 77.5168 79.4945C77.6319 79.5671 77.8317 79.6882 77.9588 79.7669C78.2313 79.9244 78.97 80.4088 81.1438 81.8438C81.9612 82.3827 82.7968 82.9337 83.0087 83.0609C83.2146 83.188 83.5597 83.4181 83.7777 83.5695C83.9896 83.7209 84.2803 83.9086 84.4135 83.9933C84.5527 84.0781 84.7162 84.1871 84.7768 84.2355C84.8373 84.284 85.0372 84.4232 85.2309 84.5383C85.4186 84.6533 85.8667 84.944 86.23 85.1741C86.5872 85.4102 87.1201 85.7493 87.4047 85.9309C87.6953 86.1126 88.4401 86.597 89.0637 87.0087C89.6874 87.4144 90.3595 87.8564 90.5593 87.9836C91.3404 88.4922 93.1145 89.6669 93.2841 89.788C93.4415 89.897 96.0512 91.6226 97.3107 92.4461C98.0252 92.9124 97.9464 92.1918 97.9646 98.3074C97.9707 101.238 97.9828 104.314 97.9949 105.143C98.0009 106.003 97.9828 106.639 97.9525 106.639C97.9222 106.639 97.1351 106.13 96.2087 105.507C95.2762 104.877 94.2226 104.187 93.8714 103.957C92.6967 103.212 91.6977 102.564 90.196 101.571C89.3786 101.026 88.7004 100.584 88.6883 100.584C88.6702 100.584 88.4461 100.445 88.1858 100.275C87.9254 100.106 87.5379 99.8454 87.3199 99.7061C86.6902 99.2944 86.6417 99.2641 86.3208 99.0461C85.7274 98.6465 84.6194 97.932 84.2016 97.6777C83.9715 97.5384 83.5537 97.2841 83.2812 97.1145C83.0087 96.9389 82.6091 96.6907 82.4032 96.5635C82.1913 96.4364 81.8038 96.1821 81.5374 96.0065C81.2709 95.8369 80.4656 95.3162 79.7511 94.8621C78.7097 94.2021 78.413 94.0447 78.2676 94.0568L78.086 94.0749V97.7079C78.086 99.7061 78.1102 105.107 78.1344 109.715C78.1647 114.517 78.1647 118.083 78.1344 118.083C78.1042 118.083 77.7954 117.895 77.4442 117.671Z" fill="white"/>
<path d="M143.679 70.8906H146.262C146.802 70.8906 147.266 70.972 147.653 71.1348C148.041 71.2975 148.339 71.5384 148.547 71.8574C148.755 72.1764 148.859 72.5687 148.859 73.0342C148.859 73.402 148.794 73.721 148.664 73.9912C148.534 74.2614 148.35 74.4876 148.112 74.6699C147.878 74.8522 147.601 74.9954 147.282 75.0996L146.862 75.3145H144.582L144.572 74.2549H146.276C146.553 74.2549 146.783 74.2061 146.965 74.1084C147.147 74.0107 147.284 73.8757 147.375 73.7031C147.469 73.5306 147.517 73.3337 147.517 73.1123C147.517 72.8747 147.471 72.6696 147.38 72.4971C147.289 72.3213 147.15 72.1862 146.965 72.0918C146.779 71.9974 146.545 71.9502 146.262 71.9502H145.021V78H143.679V70.8906ZM147.692 78L146.047 74.8164L147.468 74.8115L149.133 77.9316V78H147.692Z" fill="white"/>
<circle cx="146" cy="75" r="6.5" stroke="white"/>
</svg>
